<?xml version="1.0" encoding="utf-8"?>
<!-- Generator: Adobe Illustrator 27.2.0, SVG Export Plug-In . SVG Version: 6.00 Build 0)  -->
<svg version="1.1" id="Capa_1" xmlns="http://www.w3.org/2000/svg" xmlns:xlink="http://www.w3.org/1999/xlink" x="0px" y="0px"
	 viewBox="0 0 512 512" style="enable-background:new 0 0 512 512;" xml:space="preserve">
<style type="text/css">
	.st0{fill:#FFFFFF;}
</style>
<g>
	<g>
		<path class="st0" d="M340.8,40.9H210.2c-4.2,0-7.6,3.4-7.6,7.6s3.4,7.6,7.6,7.6h130.6c4.2,0,7.6-3.4,7.6-7.6
			C348.4,44.3,345,40.9,340.8,40.9z"/>
	</g>
</g>
<g>
	<g>
		<path class="st0" d="M268.3,73.3h-58.2c-4.2,0-7.6,3.4-7.6,7.6c0,4.2,3.4,7.6,7.6,7.6h58.2c4.2,0,7.6-3.4,7.6-7.6
			S272.5,73.3,268.3,73.3z"/>
	</g>
</g>
<g>
	<g>
		<path class="st0" d="M479.1,74.7c-4.2,0-7.6,3.4-7.6,7.6c0,4.2,3.4,7.6,7.6,7.6c7.5,0,13.6,6.1,13.6,13.6v216.3h-55.6V89.9h12.7
			c4.2,0,7.6-3.4,7.6-7.6c0-4.2-3.4-7.6-7.6-7.6h-12.7V22.9c0-12.6-10.3-22.9-22.9-22.9H95.7C83.1,0,72.8,10.3,72.8,22.9v51.8H32.9
			C17,74.7,4.1,87.6,4.1,103.5v223.9v70.1c0,15.9,12.9,28.8,28.8,28.8h46.9c4.2,0,7.6-3.4,7.6-7.6c0-4.2-3.4-7.6-7.6-7.6H32.9
			c-7.5,0-13.6-6.1-13.6-13.6V335h61.1h349.1h63.2v62.5c0,7.5-6.1,13.6-13.6,13.6H310.8H201.2h-85.6c-4.2,0-7.6,3.4-7.6,7.6
			c0,4.2,3.4,7.6,7.6,7.6h78v40.3c-20.5,0.4-37.1,17.1-37.1,37.7c0,4.2,3.4,7.6,7.6,7.6h183.7c4.2,0,7.6-3.4,7.6-7.6
			c0-20.6-16.6-37.4-37.1-37.7v-40.3h160.7c15.9,0,28.8-12.9,28.8-28.8v-70.1V103.5C507.9,87.6,495,74.7,479.1,74.7z M72.8,319.8
			H19.3V103.5c0-7.5,6.1-13.6,13.6-13.6h39.9V319.8z M421.9,111.2H162.6c-4.2,0-7.6,3.4-7.6,7.6s3.4,7.6,7.6,7.6h259.3v193.3H88l0,0
			V126.4h35c4.2,0,7.6-3.4,7.6-7.6s-3.4-7.6-7.6-7.6H88V22.9c0-4.2,3.4-7.6,7.6-7.6h318.6c4.2,0,7.6,3.4,7.6,7.6L421.9,111.2
			L421.9,111.2z M208.8,426.3h94.3v40.3h-94.3L208.8,426.3L208.8,426.3z M338.9,496.8H173.1c3.1-8.7,11.5-14.9,21.2-14.9h6.9h109.6
			h6.9C327.5,481.9,335.8,488.1,338.9,496.8z"/>
	</g>
</g>
<g>
	<g>
		<path class="st0" d="M260.1,350c-12.7,0-23,10.3-23,23c0,12.7,10.3,23,23,23c12.7,0,23-10.3,23-23S272.8,350,260.1,350z
			 M260.1,380.8c-4.3,0-7.8-3.5-7.8-7.8c0-4.3,3.5-7.8,7.8-7.8c4.3,0,7.8,3.5,7.8,7.8S264.4,380.8,260.1,380.8z"/>
	</g>
</g>
<g>
	<g>
		<path class="st0" d="M171.4,78.7l-25.1-43.4c-1.4-2.4-3.9-3.8-6.6-3.8s-5.2,1.5-6.6,3.8l-25.1,43.4c-1.4,2.4-1.4,5.3,0,7.6
			c1.4,2.4,3.9,3.8,6.6,3.8h50.1c2.7,0,5.2-1.5,6.6-3.8C172.7,84,172.7,81.1,171.4,78.7z M127.8,74.9l11.9-20.6l11.9,20.6H127.8z"/>
	</g>
</g>
<g>
	<g>
		<path class="st0" d="M399.5,154.5H289.3c-4.2,0-7.6,3.4-7.6,7.6c0,4.2,3.4,7.6,7.6,7.6h110.2c4.2,0,7.6-3.4,7.6-7.6
			C407.1,157.9,403.7,154.5,399.5,154.5z"/>
	</g>
</g>
<g>
	<g>
		<path class="st0" d="M399.5,188H289.3c-4.2,0-7.6,3.4-7.6,7.6s3.4,7.6,7.6,7.6h110.2c4.2,0,7.6-3.4,7.6-7.6
			C407.1,191.4,403.7,188,399.5,188z"/>
	</g>
</g>
<g>
	<g>
		<path class="st0" d="M399.5,221.5H289.3c-4.2,0-7.6,3.4-7.6,7.6c0,4.2,3.4,7.6,7.6,7.6h110.2c4.2,0,7.6-3.4,7.6-7.6
			C407.1,224.9,403.7,221.5,399.5,221.5z"/>
	</g>
</g>
<g>
	<g>
		<path class="st0" d="M399.5,254.9H289.3c-4.2,0-7.6,3.4-7.6,7.6c0,4.2,3.4,7.6,7.6,7.6h110.2c4.2,0,7.6-3.4,7.6-7.6
			C407.1,258.3,403.7,254.9,399.5,254.9z"/>
	</g>
</g>
<g>
	<g>
		<path class="st0" d="M340.8,288.4h-51.5c-4.2,0-7.6,3.4-7.6,7.6c0,4.2,3.4,7.6,7.6,7.6h51.5c4.2,0,7.6-3.4,7.6-7.6
			C348.4,291.8,345,288.4,340.8,288.4z"/>
	</g>
</g>
<g>
	<g>
		<path class="st0" d="M255,148.1H114.7c-4.2,0-7.6,3.4-7.6,7.6v89.8V296c0,4.2,3.4,7.6,7.6,7.6H255c4.2,0,7.6-3.4,7.6-7.6v-43
			v-97.3C262.6,151.5,259.2,148.1,255,148.1z M122.3,163.3h125.1l0,0v79.6c-0.9-0.1-1.7-0.3-2.6-0.4c-13.3-1.5-20.9,3.8-27,8.1
			c-4.6,3.2-8.6,6-15.2,6.5c-10.8,0.9-17.7-4.8-26.4-12.1c-9.7-8.1-20.8-17.2-38.3-16.1c-5.3,0.3-10.5,1.5-15.5,3.6L122.3,163.3
			L122.3,163.3z M247.4,288.4L247.4,288.4H122.3v-38.9c5.4-3.3,10.9-5.1,16.4-5.4c11.6-0.7,19,5.5,27.7,12.6
			c9.6,7.9,20.4,16.9,37.4,15.5c10.7-0.9,17.4-5.5,22.7-9.2c5.5-3.8,9.1-6.3,16.6-5.5c1.4,0.2,2.8,0.4,4.2,0.8L247.4,288.4
			L247.4,288.4z"/>
	</g>
</g>
<g>
	<g>
		<path class="st0" d="M204.9,180.3c-12.8,0-23.3,10.4-23.3,23.3c0,12.8,10.4,23.3,23.3,23.3s23.3-10.4,23.3-23.3
			S217.7,180.3,204.9,180.3z M204.9,211.7c-4.4,0-8.1-3.6-8.1-8.1c0-4.4,3.6-8.1,8.1-8.1c4.4,0,8.1,3.6,8.1,8.1
			C213,208,209.4,211.7,204.9,211.7z"/>
	</g>
</g>
</svg>
