<?xml version="1.0" encoding="utf-8"?>
<!-- Generator: Adobe Illustrator 27.2.0, SVG Export Plug-In . SVG Version: 6.00 Build 0)  -->
<svg version="1.1" id="svg405" xmlns:svg="http://www.w3.org/2000/svg"
	 xmlns="http://www.w3.org/2000/svg" xmlns:xlink="http://www.w3.org/1999/xlink" x="0px" y="0px" viewBox="0 0 682.7 682.7"
	 style="enable-background:new 0 0 682.7 682.7;" xml:space="preserve">
<style type="text/css">
	.st0{fill:none;stroke:#FFFFFF;stroke-width:20;stroke-linecap:round;stroke-linejoin:round;stroke-miterlimit:13.3333;}
</style>
<g id="g411" transform="matrix(1.3333333,0,0,-1.3333333,0,682.66667)">
	<g id="g413">
		<g>
			<g id="g415">
				<g id="g421" transform="translate(371.0002,504.5)">
					<path id="path423" class="st0" d="M0,0h-105.1c-26.9,0-48.7-21.7-48.7-48.6v-89.9"/>
				</g>
				<g id="g425" transform="translate(237.3388,242.9986)">
					<path id="path427" class="st0" d="M0,0c8-5.8,17.9-9.2,28.6-9.2h91.3v-44.3l57.9,44.3h25c26.9,0,48.7,21.7,48.7,48.6v173.6
						c0,26.8-21.8,48.6-48.7,48.6h-22"/>
				</g>
				<g id="g429" transform="translate(315.4131,304.9772)">
					<path id="path431" class="st0" d="M0,0l5-4.1c8-6.4,17.9-10,28.1-10h71.3c6.8,0,12.2,5.6,11.9,12.5c-0.3,6.4,0,64.6,0,71.2
						c0,6.6-5.3,11.9-11.9,11.9l-48.3,0.1l5.9,14c6.2,14.6,5.2,31.2-2.7,44.9l0,0c-2.2,3.9-7.2,5.2-11,2.8l0,0
						c-2.3-1.4-3.8-4-3.8-6.7c0-12.6-4.6-24.7-12.9-34.1L0.8,67.7"/>
				</g>
				<path id="path433" class="st0" d="M314.5,294.3h-40.3V385h40.3V294.3z"/>
				<g id="g435" transform="translate(23.2673,270)">
					<path id="path437" class="st0" d="M0,0v-75.7C0-96.8,17.2-114,38.4-114h75.4v-35.2l45.6,35.2"/>
				</g>
				<g id="g439" transform="translate(236.2645,185)">
					<path id="path441" class="st0" d="M0,0c0.7,3,1.1,6.1,1.1,9.3v136.9c0,21.2-17.2,38.3-38.4,38.3h-137.3
						c-21.2,0-38.4-17.2-38.4-38.3V130"/>
				</g>
				<g id="g443" transform="translate(79.9881,277.2979)">
					<path id="path445" class="st0" d="M0,0h100.7"/>
				</g>
				<g id="g447" transform="translate(79.9881,244.0018)">
					<path id="path449" class="st0" d="M0,0h100.7"/>
				</g>
				<g id="g451" transform="translate(155.3103,311)">
					<path id="path453" class="st0" d="M0,0l-16.6-100.7"/>
				</g>
				<g id="g455" transform="translate(122.0143,311)">
					<path id="path457" class="st0" d="M0,0l-16.6-100.7"/>
				</g>
				<g id="g459" transform="translate(339,120)">
					<path id="path461" class="st0" d="M0,0v36.8C0,51.8-12.2,64-27.3,64h-97.4c-15.1,0-27.3-12.2-27.3-27.2v-97.1
						c0-15,12.2-27.2,27.3-27.2h53.5v-25l32.4,25h11.5C-12.2-87.5,0-75.3,0-60.3V-47"/>
				</g>
				<g id="g463" transform="translate(263.0173,75.2472)">
					<path id="path465" class="st0" d="M0,0c23.4,12.4,35.6,23,35.6,39.4C35.6,62,7.9,67.6,0,50.7C-9,68.2-35.6,62-35.6,39.4
						C-35.6,23-23.4,12.4,0,0z"/>
				</g>
			</g>
		</g>
	</g>
</g>
</svg>
