<?xml version="1.0" encoding="utf-8"?>
<!-- Generator: Adobe Illustrator 27.2.0, SVG Export Plug-In . SVG Version: 6.00 Build 0)  -->
<svg version="1.1" id="Capa_1" xmlns="http://www.w3.org/2000/svg" xmlns:xlink="http://www.w3.org/1999/xlink" x="0px" y="0px"
	 viewBox="0 0 512 512" style="enable-background:new 0 0 512 512;" xml:space="preserve">
<style type="text/css">
	.st0{fill:#FFFFFF;}
</style>
<g>
	<path class="st0" d="M50.5,333.5c-4.1,0-7.5,3.4-7.5,7.5c0,4.1,3.4,7.5,7.5,7.5H116c4.1,0,7.5-3.4,7.5-7.5c0-4.1-3.4-7.5-7.5-7.5
		H50.5z"/>
	<path class="st0" d="M503.6,388.4L472,356.8l0-253.8c0-6.9-5.6-12.5-12.5-12.5l-72.2,0c-28.4-27.2-68.4-43.2-108.1-43
		c-41.8,0-79.8,16.4-107.9,43l-69.8,0c0,0,0,0,0,0c-4.1,0-7.5,3.4-7.5,7.5c0,4.1,3.4,7.5,7.5,7.5l55.8,0c-4.1,5.1-8,10.4-11.5,16
		l-130.9,0v-16l51.5,0c4.1,0,7.5-3.4,7.5-7.5s-3.4-7.5-7.5-7.5l-54,0C5.6,90.5,0,96.1,0,103l0,280c0,6.9,5.6,12.5,12.5,12.5l101.6,0
		c4.1,0,7.5-3.4,7.5-7.5c0-4.1-3.4-7.5-7.5-7.5l-99.1,0l0-244l122.6,0c-4.8,10-8.6,20.5-11.2,31.5H51c-4.1,0-7.5,3.4-7.5,7.5v60
		c0,4.1,3.4,7.5,7.5,7.5h75.7c1.8,7,4,13.9,6.7,20.5H50.5c-4.1,0-7.5,3.4-7.5,7.5c0,4.1,3.4,7.5,7.5,7.5h89.9c3.7,7,8,13.7,12.7,20
		H50.5c-4.1,0-7.5,3.4-7.5,7.5c0,4.1,3.4,7.5,7.5,7.5h115.3c28.6,29.9,68.9,48.5,113.5,48.5c27.5,0,54.1-7.1,77.6-20.4l15,15
		c2.8,2.8,6.5,4.2,10.2,4.2c3.3,0,6.6-1.1,9.2-3.4l23.1,23.1l-265.2,0c-4.1,0-7.5,3.4-7.5,7.5c0,4.1,3.4,7.5,7.5,7.5l32.7,0l-6.6,24
		l-13,0c-18.6,0-33.8,15.2-33.8,33.8v3.7c0,4.1,3.4,7.5,7.5,7.5l200,0h0c2,0,3.9-0.8,5.3-2.2c1.4-1.4,2.2-3.3,2.2-5.3v-3.7
		c0-18.6-15.2-33.8-33.8-33.8l-13,0l-6.6-24l139.2,0l33.6,33.6c5.4,5.4,12.7,8.4,20.3,8.4c7.7,0,14.9-3,20.3-8.4
		C514.8,417.9,514.8,399.6,503.6,388.4L503.6,388.4z M328.1,449.5l-184.2,0c1.8-8.6,9.4-15,18.4-15l147.4,0
		C318.8,434.5,326.3,441,328.1,449.5z M281.2,419.5l-90.3,0l6.6-24l77.2,0L281.2,419.5z M457,121.5l-44.3,0
		c-3.5-5.6-7.3-10.9-11.4-16l55.8,0V121.5z M58.5,228v-45h65c-1,7.1-1.5,14.4-1.5,21.7c0,7.9,0.6,15.7,1.7,23.3H58.5z M137,204.7
		c0-78.4,63.8-142.2,142.2-142.2c70.6,0,129.7,50.5,140.5,120.2c0.6,4.1,4.5,6.9,8.6,6.3c4.1-0.6,6.9-4.5,6.3-8.6
		c-2.4-15.3-7-30.1-13.7-43.9l36.1,0l0,205.3l-25.1-25.1c2.2-2.6,3.4-5.8,3.4-9.2c0-3.8-1.5-7.5-4.2-10.2l-15-15
		c11.3-20,18.2-42.3,20-65.6c0.3-4.1-2.8-7.7-6.9-8c-4.1-0.3-7.7,2.8-8,6.9C415.5,289.3,353.2,347,279.3,347
		C200.8,347,137,283.2,137,204.7L137,204.7z M369.8,333.3c5.8-4.1,11.4-8.6,16.6-13.5c8-7.5,15.2-15.7,21.4-24.5l12.2,12.2l-38,38
		L369.8,333.3z M493,418.5c-2.6,2.6-6.1,4-9.7,4s-7.1-1.4-9.7-4l-71.6-71.6l19.5-19.5L493,399C498.3,404.4,498.3,413.1,493,418.5z"
		/>
	<path class="st0" d="M279.3,77.4c-70.2,0-127.3,57.1-127.3,127.3c0,40.5,19.6,79,52.4,102.9c3.3,2.4,8,1.7,10.5-1.6
		c2.4-3.3,1.7-8-1.6-10.5c-28.9-21.1-46.2-55-46.2-90.8c0-61.9,50.4-112.3,112.3-112.3s112.3,50.4,112.3,112.3S341.2,317,279.3,317
		c-12.8,0-25.3-2.1-37.2-6.3c-3.9-1.4-8.2,0.7-9.6,4.6c-1.4,3.9,0.7,8.2,4.6,9.6c13.5,4.7,27.7,7.1,42.1,7.1
		c70.2,0,127.3-57.1,127.3-127.3S349.4,77.4,279.3,77.4z"/>
	<path class="st0" d="M282.8,185.4c4.1,0,7.5-3.4,7.5-7.5s-3.4-7.5-7.5-7.5h-22.6c-4.1,0-7.5,3.4-7.5,7.5v53.7
		c0,4.1,3.4,7.5,7.5,7.5h22.6c4.1,0,7.5-3.4,7.5-7.5c0-4.1-3.4-7.5-7.5-7.5h-15.1v-11.9h13.5c4.1,0,7.5-3.4,7.5-7.5
		s-3.4-7.5-7.5-7.5h-13.5v-11.9L282.8,185.4z"/>
	<path class="st0" d="M210.9,224.4c-5.2,0-10.2-2.1-13.3-5.6c-2.8-3.1-7.5-3.3-10.6-0.5c-3.1,2.8-3.3,7.5-0.5,10.6
		c6.1,6.7,15,10.5,24.5,10.5c11.8,0,21.7-7.5,23.5-17.9c1.4-7.9-2.1-18.1-16.2-23.3c-4.5-1.7-12-4.4-14.8-5.9
		c-0.8-0.4-1.1-1.2-1-2.3c0.2-1.5,1.3-3.4,4-4.2c7.3-2.2,14.1,3.1,14.3,3.3c3.2,2.6,7.9,2.2,10.5-1c2.7-3.2,2.3-7.9-0.9-10.6
		c-0.5-0.4-13-10.7-28.2-6.2c-8,2.4-13.8,9.1-14.6,17.1c-0.7,7.1,2.6,13.7,8.8,17c3.1,1.8,10.2,4.5,16.8,6.8c1.7,0.6,7.3,3,6.7,6.6
		C219.2,221.5,215.8,224.4,210.9,224.4L210.9,224.4z"/>
	<path class="st0" d="M376.2,204.7c0-19.1-15.5-34.6-34.6-34.6S307,185.7,307,204.7s15.5,34.6,34.6,34.6S376.2,223.8,376.2,204.7z
		 M322,204.7c0-10.8,8.8-19.6,19.6-19.6s19.6,8.8,19.6,19.6s-8.8,19.6-19.6,19.6S322,215.6,322,204.7z"/>
</g>
</svg>
